# xmcd CD database file
#
# Track frame offsets:
#	150
#	22902
#	52852
#	70639
#	88934
#	108611
#	124833
#	147041
#	168538
#	189626
#	211718
#	236008
#	254371
#	274281
#
# Disc length: 3937 seconds
#
# Revision: 0
# Processed by: cddbd v1.4PL0 Copyright (c) Steve Scherf et al.
# Submitted via: CDex 1.40Release
#
DISCID=c50f5f0e
DTITLE=B.B.King - B.B.King and Friends
DYEAR=1900
DGENRE=Blues
TTITLE0=02 - B.B.King With Tracy Chapman - The Thrill Is Gone
TTITLE1=03 - B.B.King With Eric Clapton - Rock Me Baby
TTITLE2=16 - B.B. King With D. Gilmour and P. Carrack - Cryin' Won't Help You Babe
TTITLE3=05 - B.B.King With Bonnie Raitt - Baby I Love You
TTITLE4=10 - B.B.King With Dionne Warwick - Hummingbird
TTITLE5=12 - B.B.King With The Rollling Stones - Paying The Cost To Be The Boss
TTITLE6=14 - B.B.King With Joe Cocker - Dangerous Mood
TTITLE7=01 - (You've Become A) Habit To Me
TTITLE8=02 - Drowning In The Sea Of Love
TTITLE9=03 - Can't Get Enough
TTITLE10=04 - Standing On The Edge
TTITLE11=09 - Lay Another Log On The Fire
TTITLE12=01 - Riding With The King
TTITLE13=02 - Ten Long Years
EXTD=ID3G: 0
EXTT0=
EXTT1=
EXTT2=
EXTT3=
EXTT4=
EXTT5=
EXTT6=
EXTT7=
EXTT8=
EXTT9=
EXTT10=
EXTT11=
EXTT12=
EXTT13=
PLAYORDER=
